<svg id="svg" version="1.1" xmlns="http://www.w3.org/2000/svg" xmlns:xlink="http://www.w3.org/1999/xlink" width="400" height="400" viewBox="0, 0, 400,400"><g id="svgg"><path id="path0" d="M196.000 131.000 C 196.000 143.933,195.861 150.800,195.600 150.800 C 195.380 150.800,195.200 150.554,195.200 150.253 C 195.200 149.783,194.732 148.462,193.196 144.600 C 193.021 144.160,192.483 142.720,192.000 141.400 C 191.517 140.080,190.977 138.640,190.800 138.200 C 190.623 137.760,190.083 136.320,189.600 135.000 C 189.117 133.680,188.577 132.240,188.400 131.800 C 188.223 131.360,187.718 130.010,187.279 128.800 C 186.839 127.590,185.904 125.070,185.200 123.200 C 184.496 121.330,183.550 118.810,183.098 117.600 C 181.497 113.320,181.233 114.378,182.372 120.500 C 182.607 121.765,182.980 123.790,183.200 125.000 C 183.420 126.210,183.780 128.190,184.000 129.400 C 184.220 130.610,184.580 132.590,184.800 133.800 C 185.020 135.010,185.380 136.990,185.600 138.200 C 185.820 139.410,186.180 141.390,186.400 142.600 C 186.620 143.810,186.991 145.835,187.224 147.100 C 188.000 151.319,188.108 152.400,187.752 152.400 C 187.457 152.400,182.146 143.887,181.641 142.604 C 181.553 142.382,180.968 141.448,180.341 140.528 C 179.713 139.608,179.200 138.776,179.200 138.679 C 179.200 138.581,177.220 135.216,174.800 131.200 C 172.380 127.184,170.400 123.828,170.400 123.743 C 170.400 123.658,169.743 122.598,168.939 121.388 C 167.514 119.241,166.640 118.705,167.492 120.501 C 167.727 120.995,168.136 122.030,168.400 122.800 C 168.664 123.570,169.025 124.560,169.201 125.000 C 169.378 125.440,169.917 126.880,170.400 128.200 C 170.883 129.520,171.423 130.960,171.601 131.400 C 171.905 132.153,172.832 134.611,175.561 141.900 C 176.199 143.605,177.030 145.810,177.408 146.800 C 177.786 147.790,178.595 149.950,179.205 151.600 C 179.816 153.250,180.444 154.915,180.601 155.300 C 181.274 156.953,179.816 155.722,176.338 151.700 C 174.293 149.335,172.525 147.310,172.410 147.200 C 172.294 147.090,171.030 145.650,169.600 144.000 C 168.170 142.350,166.905 140.910,166.789 140.800 C 166.672 140.690,164.332 137.992,161.588 134.804 C 153.875 125.842,152.888 125.078,156.386 130.777 C 157.494 132.582,158.400 134.148,158.400 134.257 C 158.400 134.367,158.940 135.241,159.600 136.200 C 160.260 137.159,160.800 138.059,160.800 138.200 C 160.800 138.341,161.340 139.241,162.000 140.200 C 162.660 141.159,163.200 142.059,163.200 142.200 C 163.200 142.341,163.740 143.241,164.400 144.200 C 165.060 145.159,165.600 146.059,165.600 146.200 C 165.600 146.341,166.113 147.208,166.741 148.128 C 167.368 149.048,167.953 149.984,168.041 150.209 C 168.128 150.434,169.519 152.823,171.130 155.518 C 175.345 162.565,175.846 162.789,161.199 151.081 C 160.868 150.816,159.788 149.975,158.799 149.210 C 157.809 148.446,156.910 147.721,156.800 147.600 C 156.690 147.479,155.790 146.759,154.800 146.000 C 153.810 145.241,152.910 144.521,152.800 144.400 C 152.690 144.279,151.790 143.559,150.800 142.800 C 149.810 142.041,148.910 141.318,148.800 141.192 C 148.361 140.689,143.644 137.200,143.403 137.200 C 143.114 137.200,144.339 138.977,145.471 140.200 C 145.878 140.640,148.813 143.970,151.992 147.600 C 155.172 151.230,157.869 154.290,157.987 154.400 C 158.105 154.510,159.370 155.950,160.800 157.600 C 162.230 159.250,163.500 160.690,163.623 160.800 C 164.563 161.640,168.416 166.518,168.261 166.672 C 168.092 166.842,164.835 165.197,157.400 161.188 C 151.981 158.266,149.944 157.173,147.000 155.606 C 145.240 154.670,142.900 153.406,141.800 152.799 C 132.073 147.425,131.445 147.507,138.801 153.190 C 139.791 153.954,140.690 154.679,140.800 154.800 C 140.910 154.921,141.809 155.646,142.799 156.410 C 143.788 157.175,144.868 158.017,145.199 158.281 C 145.529 158.546,149.919 162.048,154.954 166.063 C 159.989 170.079,163.886 173.438,163.615 173.528 C 163.157 173.681,158.942 172.362,140.800 166.389 C 136.950 165.121,132.450 163.690,130.800 163.208 C 129.150 162.726,127.485 162.166,127.100 161.963 C 126.715 161.760,126.400 161.741,126.400 161.922 C 126.400 162.243,127.014 162.610,132.400 165.499 C 133.830 166.266,135.900 167.391,137.000 167.999 C 138.100 168.606,140.395 169.845,142.100 170.752 C 143.805 171.658,146.595 173.142,148.300 174.048 C 150.005 174.955,152.300 176.192,153.400 176.799 C 154.500 177.405,156.390 178.418,157.600 179.050 C 161.939 181.318,160.783 181.689,153.400 180.398 C 152.300 180.206,149.870 179.853,148.000 179.615 C 146.130 179.376,143.430 179.012,142.000 178.805 C 139.445 178.435,136.754 178.069,130.000 177.173 C 128.130 176.925,125.736 176.560,124.680 176.361 C 122.220 175.898,121.600 175.906,121.600 176.400 C 121.600 176.620,122.014 176.800,122.520 176.800 C 123.026 176.800,123.611 176.951,123.820 177.137 C 124.029 177.322,125.550 177.881,127.200 178.379 C 128.850 178.877,133.350 180.318,137.200 181.582 C 141.050 182.846,147.402 184.925,151.315 186.202 C 161.002 189.363,160.980 189.409,149.600 189.773 C 123.831 190.600,115.388 191.358,123.289 192.136 C 127.945 192.595,129.799 192.914,130.049 193.299 C 130.207 193.542,130.574 193.543,131.049 193.303 C 135.521 191.044,147.142 192.263,153.520 195.660 C 154.972 196.433,156.345 196.862,157.300 196.840 C 158.810 196.806,159.403 197.425,158.100 197.676 C 157.572 197.778,157.762 198.035,158.869 198.719 C 165.703 202.943,172.800 216.130,172.800 224.606 C 172.800 226.846,173.135 226.871,176.459 224.873 C 178.959 223.370,181.665 222.218,185.187 221.154 C 191.773 219.166,201.055 221.125,206.450 225.642 C 208.184 227.094,208.427 227.192,208.667 226.536 C 210.927 220.378,217.168 216.591,225.942 216.054 L 230.084 215.800 230.662 214.000 C 235.938 197.584,254.300 188.040,269.780 193.669 C 270.869 194.065,271.859 194.244,271.980 194.065 C 272.101 193.887,273.820 193.523,275.800 193.256 C 277.780 192.989,280.501 192.597,281.846 192.385 C 283.191 192.173,284.936 192.000,285.723 192.000 C 287.974 192.000,287.813 191.318,285.495 191.036 C 283.348 190.774,269.762 190.150,258.000 189.773 C 246.823 189.415,246.710 189.257,255.600 186.422 C 258.570 185.475,264.150 183.671,268.000 182.413 C 271.850 181.155,276.890 179.525,279.200 178.790 C 281.510 178.056,283.571 177.308,283.780 177.128 C 283.989 176.947,284.574 176.800,285.080 176.800 C 285.586 176.800,286.000 176.620,286.000 176.400 C 286.000 175.901,285.379 175.898,282.931 176.382 C 281.869 176.592,279.380 176.964,277.400 177.209 C 275.420 177.454,272.720 177.811,271.400 178.003 C 270.080 178.195,267.650 178.535,266.000 178.759 C 259.941 179.580,256.544 180.056,254.200 180.411 C 246.205 181.622,245.694 181.405,250.492 178.837 C 251.652 178.217,253.770 177.079,255.200 176.309 C 256.630 175.539,259.240 174.142,261.000 173.204 C 264.132 171.536,266.360 170.337,271.600 167.504 C 273.030 166.731,275.428 165.447,276.930 164.651 C 278.431 163.855,280.051 162.923,280.530 162.580 C 282.175 161.400,282.008 161.451,249.701 172.004 C 243.054 174.175,242.653 174.008,246.799 170.794 C 247.788 170.027,248.958 169.105,249.399 168.745 C 249.839 168.385,255.240 164.076,261.400 159.169 C 267.560 154.262,272.846 150.003,273.148 149.704 C 274.047 148.813,273.389 148.708,271.947 149.512 C 271.206 149.926,269.160 151.039,267.400 151.985 C 265.640 152.932,263.120 154.290,261.800 155.003 C 260.480 155.716,257.960 157.064,256.200 157.998 C 254.440 158.932,252.100 160.193,251.000 160.801 C 249.900 161.408,247.380 162.759,245.400 163.803 C 243.420 164.847,241.620 165.836,241.400 166.001 C 239.181 167.669,238.934 166.639,241.000 164.329 C 241.660 163.591,243.370 161.640,244.800 159.994 C 246.229 158.347,247.490 156.910,247.600 156.800 C 247.710 156.690,248.970 155.250,250.400 153.600 C 251.830 151.950,253.089 150.510,253.200 150.400 C 253.310 150.290,254.750 148.670,256.400 146.800 C 258.050 144.930,259.495 143.310,259.610 143.200 C 259.726 143.090,260.806 141.830,262.010 140.400 C 263.215 138.970,264.375 137.675,264.588 137.522 C 264.802 137.369,264.864 137.131,264.726 136.993 C 264.589 136.855,264.144 137.017,263.738 137.352 C 263.145 137.842,242.764 154.100,236.601 159.000 C 233.778 161.244,232.869 161.350,234.356 159.261 C 234.820 158.610,235.200 157.992,235.200 157.889 C 235.200 157.786,237.180 154.416,239.600 150.400 C 242.020 146.384,244.000 143.019,244.000 142.921 C 244.000 142.824,244.540 141.959,245.200 141.000 C 245.860 140.041,246.400 139.141,246.400 139.000 C 246.400 138.859,246.940 137.959,247.600 137.000 C 248.260 136.041,248.800 135.136,248.800 134.990 C 248.800 134.843,249.139 134.246,249.553 133.662 C 249.967 133.078,250.687 131.925,251.153 131.100 C 251.619 130.275,252.357 128.970,252.793 128.200 C 253.229 127.430,253.424 126.800,253.226 126.800 C 253.029 126.800,252.807 126.967,252.733 127.171 C 252.660 127.374,251.789 128.409,250.798 129.471 C 249.807 130.532,248.008 132.570,246.800 134.000 C 245.593 135.430,244.514 136.690,244.402 136.800 C 244.290 136.910,243.030 138.350,241.600 140.000 C 240.170 141.650,238.910 143.090,238.800 143.200 C 238.690 143.310,237.430 144.750,236.000 146.400 C 234.570 148.050,233.310 149.490,233.200 149.600 C 232.941 149.858,227.869 155.746,227.716 155.967 C 226.841 157.226,227.295 154.412,228.387 151.800 C 228.571 151.360,229.117 149.920,229.600 148.600 C 230.083 147.280,230.623 145.840,230.801 145.400 C 231.101 144.657,231.574 143.404,234.800 134.800 C 235.460 133.040,236.557 130.115,237.238 128.300 C 237.919 126.485,238.630 124.640,238.818 124.200 C 239.274 123.132,240.400 119.643,240.400 119.297 C 240.400 119.146,240.137 119.398,239.815 119.857 C 238.843 121.245,235.200 127.244,235.200 127.457 C 235.200 127.567,234.660 128.441,234.000 129.400 C 233.340 130.359,232.800 131.259,232.800 131.400 C 232.800 131.541,232.287 132.408,231.659 133.328 C 231.032 134.248,230.447 135.189,230.359 135.421 C 230.027 136.297,220.598 151.827,220.064 152.377 C 219.468 152.990,219.538 151.958,220.388 147.600 C 220.581 146.610,220.947 144.630,221.200 143.200 C 221.453 141.770,221.813 139.790,222.000 138.800 C 222.187 137.810,222.547 135.830,222.800 134.400 C 223.053 132.970,223.413 130.990,223.600 130.000 C 223.787 129.010,224.147 127.030,224.400 125.600 C 224.908 122.733,225.293 120.669,226.027 116.890 C 226.487 114.517,226.312 113.007,225.766 114.643 C 225.627 115.059,225.173 116.163,224.757 117.096 C 224.341 118.028,224.001 118.928,224.002 119.096 C 224.003 119.263,223.463 120.795,222.802 122.500 C 222.141 124.205,221.060 127.040,220.400 128.800 C 219.740 130.560,218.642 133.485,217.960 135.300 C 217.278 137.115,216.361 139.590,215.921 140.800 C 215.482 142.010,214.979 143.360,214.804 143.800 C 213.268 147.662,212.800 148.983,212.800 149.453 C 212.800 149.754,212.530 150.000,212.200 150.000 C 211.675 150.000,211.598 147.606,211.588 130.900 C 211.576 112.064,211.335 109.001,210.353 115.200 C 210.000 117.433,209.373 121.074,208.820 124.100 C 208.589 125.365,208.220 127.390,208.000 128.600 C 207.780 129.810,207.420 131.790,207.200 133.000 C 206.980 134.210,206.620 136.190,206.400 137.400 C 206.180 138.610,205.820 140.590,205.600 141.800 C 205.380 143.010,205.030 144.989,204.821 146.197 C 204.054 150.651,203.624 150.566,202.823 145.800 C 202.564 144.260,202.196 142.190,202.006 141.200 C 201.816 140.210,201.453 138.230,201.200 136.800 C 200.947 135.370,200.587 133.390,200.400 132.400 C 200.213 131.410,199.853 129.430,199.600 128.000 C 199.347 126.570,198.987 124.590,198.800 123.600 C 198.613 122.610,198.255 120.630,198.003 119.200 C 197.751 117.770,197.378 115.845,197.173 114.923 C 196.968 114.000,196.800 112.785,196.800 112.223 C 196.800 111.660,196.620 111.200,196.400 111.200 C 196.139 111.200,196.000 118.067,196.000 131.000 M116.975 201.300 L 115.800 202.600 117.100 201.425 C 118.312 200.330,118.584 200.000,118.275 200.000 C 118.206 200.000,117.621 200.585,116.975 201.300 M69.300 229.097 C 70.785 229.174,73.215 229.174,74.700 229.097 C 76.185 229.020,74.970 228.957,72.000 228.957 C 69.030 228.957,67.815 229.020,69.300 229.097 M365.200 231.000 C 365.946 231.770,366.647 232.400,366.757 232.400 C 366.867 232.400,366.346 231.770,365.600 231.000 C 364.854 230.230,364.153 229.600,364.043 229.600 C 363.933 229.600,364.454 230.230,365.200 231.000 M35.375 242.100 L 34.200 243.400 35.500 242.225 C 36.712 241.130,36.984 240.800,36.675 240.800 C 36.606 240.800,36.021 241.385,35.375 242.100 M71.700 286.287 C 72.305 286.378,73.295 286.378,73.900 286.287 C 74.505 286.195,74.010 286.120,72.800 286.120 C 71.590 286.120,71.095 286.195,71.700 286.287 M193.305 286.287 C 193.914 286.379,194.814 286.377,195.305 286.282 C 195.797 286.187,195.300 286.111,194.200 286.114 C 193.100 286.117,192.697 286.195,193.305 286.287 " stroke="none" fill="#feda4f" fill-rule="evenodd"></path><path id="path1" d="M0.000 200.000 L 0.000 400.000 200.000 400.000 L 400.000 400.000 400.000 200.000 L 400.000 0.000 200.000 0.000 L 0.000 0.000 0.000 200.000 M196.800 112.223 C 196.800 112.785,196.968 114.000,197.173 114.923 C 197.378 115.845,197.751 117.770,198.003 119.200 C 198.255 120.630,198.613 122.610,198.800 123.600 C 198.987 124.590,199.347 126.570,199.600 128.000 C 199.853 129.430,200.213 131.410,200.400 132.400 C 200.587 133.390,200.947 135.370,201.200 136.800 C 201.453 138.230,201.816 140.210,202.006 141.200 C 202.196 142.190,202.564 144.260,202.823 145.800 C 203.624 150.566,204.054 150.651,204.821 146.197 C 205.030 144.989,205.380 143.010,205.600 141.800 C 205.820 140.590,206.180 138.610,206.400 137.400 C 206.620 136.190,206.980 134.210,207.200 133.000 C 207.420 131.790,207.780 129.810,208.000 128.600 C 208.220 127.390,208.589 125.365,208.820 124.100 C 209.373 121.074,210.000 117.433,210.353 115.200 C 211.335 109.001,211.576 112.064,211.588 130.900 C 211.598 147.606,211.675 150.000,212.200 150.000 C 212.530 150.000,212.800 149.754,212.800 149.453 C 212.800 148.983,213.268 147.662,214.804 143.800 C 214.979 143.360,215.482 142.010,215.921 140.800 C 216.361 139.590,217.278 137.115,217.960 135.300 C 218.642 133.485,219.740 130.560,220.400 128.800 C 221.060 127.040,222.141 124.205,222.802 122.500 C 223.463 120.795,224.003 119.263,224.002 119.096 C 224.001 118.928,224.341 118.028,224.757 117.096 C 225.173 116.163,225.627 115.059,225.766 114.643 C 226.312 113.007,226.487 114.517,226.027 116.890 C 225.293 120.669,224.908 122.733,224.400 125.600 C 224.147 127.030,223.787 129.010,223.600 130.000 C 223.413 130.990,223.053 132.970,222.800 134.400 C 222.547 135.830,222.187 137.810,222.000 138.800 C 221.813 139.790,221.453 141.770,221.200 143.200 C 220.947 144.630,220.581 146.610,220.388 147.600 C 219.538 151.958,219.468 152.990,220.064 152.377 C 220.598 151.827,230.027 136.297,230.359 135.421 C 230.447 135.189,231.032 134.248,231.659 133.328 C 232.287 132.408,232.800 131.541,232.800 131.400 C 232.800 131.259,233.340 130.359,234.000 129.400 C 234.660 128.441,235.200 127.567,235.200 127.457 C 235.200 127.244,238.843 121.245,239.815 119.857 C 240.137 119.398,240.400 119.146,240.400 119.297 C 240.400 119.643,239.274 123.132,238.818 124.200 C 238.630 124.640,237.919 126.485,237.238 128.300 C 236.557 130.115,235.460 133.040,234.800 134.800 C 231.574 143.404,231.101 144.657,230.801 145.400 C 230.623 145.840,230.083 147.280,229.600 148.600 C 229.117 149.920,228.571 151.360,228.387 151.800 C 227.295 154.412,226.841 157.226,227.716 155.967 C 227.869 155.746,232.941 149.858,233.200 149.600 C 233.310 149.490,234.570 148.050,236.000 146.400 C 237.430 144.750,238.690 143.310,238.800 143.200 C 238.910 143.090,240.170 141.650,241.600 140.000 C 243.030 138.350,244.290 136.910,244.402 136.800 C 244.514 136.690,245.593 135.430,246.800 134.000 C 248.008 132.570,249.807 130.532,250.798 129.471 C 251.789 128.409,252.660 127.374,252.733 127.171 C 252.807 126.967,253.029 126.800,253.226 126.800 C 253.424 126.800,253.229 127.430,252.793 128.200 C 252.357 128.970,251.619 130.275,251.153 131.100 C 250.687 131.925,249.967 133.078,249.553 133.662 C 249.139 134.246,248.800 134.843,248.800 134.990 C 248.800 135.136,248.260 136.041,247.600 137.000 C 246.940 137.959,246.400 138.859,246.400 139.000 C 246.400 139.141,245.860 140.041,245.200 141.000 C 244.540 141.959,244.000 142.824,244.000 142.921 C 244.000 143.019,242.020 146.384,239.600 150.400 C 237.180 154.416,235.200 157.786,235.200 157.889 C 235.200 157.992,234.820 158.610,234.356 159.261 C 232.869 161.350,233.778 161.244,236.601 159.000 C 242.764 154.100,263.145 137.842,263.738 137.352 C 264.144 137.017,264.589 136.855,264.726 136.993 C 264.864 137.131,264.802 137.369,264.588 137.522 C 264.375 137.675,263.215 138.970,262.010 140.400 C 260.806 141.830,259.726 143.090,259.610 143.200 C 259.495 143.310,258.050 144.930,256.400 146.800 C 254.750 148.670,253.310 150.290,253.200 150.400 C 253.089 150.510,251.830 151.950,250.400 153.600 C 248.970 155.250,247.710 156.690,247.600 156.800 C 247.490 156.910,246.229 158.347,244.800 159.994 C 243.370 161.640,241.660 163.591,241.000 164.329 C 238.934 166.639,239.181 167.669,241.400 166.001 C 241.620 165.836,243.420 164.847,245.400 163.803 C 247.380 162.759,249.900 161.408,251.000 160.801 C 252.100 160.193,254.440 158.932,256.200 157.998 C 257.960 157.064,260.480 155.716,261.800 155.003 C 263.120 154.290,265.640 152.932,267.400 151.985 C 269.160 151.039,271.206 149.926,271.947 149.512 C 273.389 148.708,274.047 148.813,273.148 149.704 C 272.846 150.003,267.560 154.262,261.400 159.169 C 255.240 164.076,249.839 168.385,249.399 168.745 C 248.958 169.105,247.788 170.027,246.799 170.794 C 242.653 174.008,243.054 174.175,249.701 172.004 C 282.008 161.451,282.175 161.400,280.530 162.580 C 280.051 162.923,278.431 163.855,276.930 164.651 C 275.428 165.447,273.030 166.731,271.600 167.504 C 266.360 170.337,264.132 171.536,261.000 173.204 C 259.240 174.142,256.630 175.539,255.200 176.309 C 253.770 177.079,251.652 178.217,250.492 178.837 C 245.694 181.405,246.205 181.622,254.200 180.411 C 256.544 180.056,259.941 179.580,266.000 178.759 C 267.650 178.535,270.080 178.195,271.400 178.003 C 272.720 177.811,275.420 177.454,277.400 177.209 C 279.380 176.964,281.869 176.592,282.931 176.382 C 285.379 175.898,286.000 175.901,286.000 176.400 C 286.000 176.620,285.586 176.800,285.080 176.800 C 284.574 176.800,283.989 176.947,283.780 177.128 C 283.571 177.308,281.510 178.056,279.200 178.790 C 276.890 179.525,271.850 181.155,268.000 182.413 C 264.150 183.671,258.570 185.475,255.600 186.422 C 246.710 189.257,246.823 189.415,258.000 189.773 C 269.762 190.150,283.348 190.774,285.495 191.036 C 287.813 191.318,287.974 192.000,285.723 192.000 C 284.936 192.000,283.191 192.175,281.846 192.390 C 280.501 192.604,277.735 192.999,275.700 193.267 C 271.395 193.835,271.303 193.946,274.100 195.196 C 282.171 198.805,289.649 206.988,292.028 214.815 C 293.123 218.416,293.557 220.426,293.820 223.109 C 294.166 226.644,294.360 226.791,296.729 225.327 C 309.646 217.343,323.792 219.160,331.347 229.775 C 331.885 230.530,331.965 230.518,334.567 229.275 C 336.035 228.574,337.487 228.000,337.794 228.000 C 338.101 228.000,338.451 227.841,338.570 227.648 C 338.690 227.454,339.196 227.198,339.694 227.079 C 340.192 226.960,341.680 226.585,343.000 226.245 C 347.365 225.123,357.435 225.515,358.980 226.867 C 359.189 227.050,359.604 227.200,359.902 227.200 C 362.460 227.200,368.250 233.411,369.560 237.561 C 373.310 249.442,362.504 259.136,344.608 259.947 L 339.016 260.200 338.556 262.200 C 336.224 272.328,328.847 280.154,319.280 282.648 C 316.903 283.267,308.552 283.401,307.119 282.842 C 306.613 282.645,305.390 282.252,304.400 281.970 C 302.162 281.332,299.913 280.242,297.686 278.717 L 295.973 277.543 292.805 280.523 C 290.062 283.103,288.164 284.442,284.114 286.654 C 279.426 289.215,270.622 290.657,264.777 289.823 C 260.532 289.217,258.228 288.546,254.100 286.711 C 252.607 286.048,246.553 282.066,245.971 281.365 C 245.252 280.498,245.044 280.606,241.774 283.547 C 238.926 286.109,237.552 287.041,233.991 288.825 C 224.404 293.628,212.980 292.095,206.376 285.119 L 204.552 283.192 202.626 284.167 C 196.474 287.281,187.405 286.523,183.000 282.525 C 182.560 282.126,181.300 281.356,180.200 280.815 C 179.100 280.274,177.422 279.311,176.470 278.676 L 174.741 277.521 172.470 279.745 C 169.454 282.701,167.124 284.339,162.568 286.707 C 153.942 291.192,140.507 291.066,132.241 286.423 C 131.509 286.012,130.480 285.433,129.955 285.138 C 129.430 284.842,127.879 283.745,126.509 282.700 C 123.576 280.463,123.802 280.508,122.460 281.904 C 111.364 293.455,94.539 294.876,85.107 285.060 C 83.740 283.638,83.073 283.198,82.707 283.480 C 77.099 287.787,66.546 286.810,60.888 281.459 C 57.064 277.842,55.923 274.946,55.853 268.673 L 55.800 263.946 54.800 264.198 C 48.940 265.672,41.235 265.379,36.800 263.514 C 34.400 262.504,33.761 262.103,31.918 260.448 C 26.741 255.800,27.973 249.654,35.614 242.014 C 45.867 231.761,61.597 227.383,81.116 229.349 C 86.562 229.898,86.474 229.927,87.156 227.375 C 88.919 220.778,96.493 216.000,105.188 216.000 L 108.738 216.000 109.197 214.500 C 112.103 205.000,119.464 197.172,128.500 193.971 C 131.101 193.049,130.622 192.881,123.289 192.142 C 115.449 191.352,123.789 190.601,149.600 189.773 C 160.980 189.409,161.002 189.363,151.315 186.202 C 147.402 184.925,141.050 182.846,137.200 181.582 C 133.350 180.318,128.850 178.877,127.200 178.379 C 125.550 177.881,124.029 177.322,123.820 177.137 C 123.611 176.951,123.026 176.800,122.520 176.800 C 122.014 176.800,121.600 176.620,121.600 176.400 C 121.600 175.906,122.220 175.898,124.680 176.361 C 125.736 176.560,128.130 176.925,130.000 177.173 C 136.754 178.069,139.445 178.435,142.000 178.805 C 143.430 179.012,146.130 179.376,148.000 179.615 C 149.870 179.853,152.300 180.206,153.400 180.398 C 160.783 181.689,161.939 181.318,157.600 179.050 C 156.390 178.418,154.500 177.405,153.400 176.799 C 152.300 176.192,150.005 174.955,148.300 174.048 C 146.595 173.142,143.805 171.658,142.100 170.752 C 140.395 169.845,138.100 168.606,137.000 167.999 C 135.900 167.391,133.830 166.266,132.400 165.499 C 127.014 162.610,126.400 162.243,126.400 161.922 C 126.400 161.741,126.715 161.760,127.100 161.963 C 127.485 162.166,129.150 162.726,130.800 163.208 C 132.450 163.690,136.950 165.121,140.800 166.389 C 158.942 172.362,163.157 173.681,163.615 173.528 C 163.886 173.438,159.989 170.079,154.954 166.063 C 149.919 162.048,145.529 158.546,145.199 158.281 C 144.868 158.017,143.788 157.175,142.799 156.410 C 141.809 155.646,140.910 154.921,140.800 154.800 C 140.690 154.679,139.791 153.954,138.801 153.190 C 131.445 147.507,132.073 147.425,141.800 152.799 C 142.900 153.406,145.240 154.670,147.000 155.606 C 149.944 157.173,151.981 158.266,157.400 161.188 C 164.835 165.197,168.092 166.842,168.261 166.672 C 168.416 166.518,164.563 161.640,163.623 160.800 C 163.500 160.690,162.230 159.250,160.800 157.600 C 159.370 155.950,158.105 154.510,157.987 154.400 C 157.869 154.290,155.172 151.230,151.992 147.600 C 148.813 143.970,145.878 140.640,145.471 140.200 C 144.339 138.977,143.114 137.200,143.403 137.200 C 143.644 137.200,148.361 140.689,148.800 141.192 C 148.910 141.318,149.810 142.041,150.800 142.800 C 151.790 143.559,152.690 144.279,152.800 144.400 C 152.910 144.521,153.810 145.241,154.800 146.000 C 155.790 146.759,156.690 147.479,156.800 147.600 C 156.910 147.721,157.809 148.446,158.799 149.210 C 159.788 149.975,160.868 150.816,161.199 151.081 C 171.180 159.059,173.822 161.071,173.930 160.775 C 174.002 160.579,172.742 158.213,171.130 155.518 C 169.519 152.823,168.128 150.434,168.041 150.209 C 167.953 149.984,167.368 149.048,166.741 148.128 C 166.113 147.208,165.600 146.341,165.600 146.200 C 165.600 146.059,165.060 145.159,164.400 144.200 C 163.740 143.241,163.200 142.341,163.200 142.200 C 163.200 142.059,162.660 141.159,162.000 140.200 C 161.340 139.241,160.800 138.341,160.800 138.200 C 160.800 138.059,160.260 137.159,159.600 136.200 C 158.940 135.241,158.400 134.367,158.400 134.257 C 158.400 134.148,157.494 132.582,156.386 130.777 C 152.888 125.078,153.875 125.842,161.588 134.804 C 164.332 137.992,166.672 140.690,166.789 140.800 C 166.905 140.910,168.170 142.350,169.600 144.000 C 171.030 145.650,172.294 147.090,172.410 147.200 C 172.525 147.310,174.293 149.335,176.338 151.700 C 179.816 155.722,181.274 156.953,180.601 155.300 C 180.444 154.915,179.816 153.250,179.205 151.600 C 178.595 149.950,177.786 147.790,177.408 146.800 C 177.030 145.810,176.199 143.605,175.561 141.900 C 172.832 134.611,171.905 132.153,171.601 131.400 C 171.423 130.960,170.883 129.520,170.400 128.200 C 169.917 126.880,169.378 125.440,169.201 125.000 C 169.025 124.560,168.664 123.570,168.400 122.800 C 168.136 122.030,167.727 120.995,167.492 120.501 C 166.640 118.705,167.514 119.241,168.939 121.388 C 169.743 122.598,170.400 123.658,170.400 123.743 C 170.400 123.828,172.380 127.184,174.800 131.200 C 177.220 135.216,179.200 138.581,179.200 138.679 C 179.200 138.776,179.713 139.608,180.341 140.528 C 180.968 141.448,181.553 142.382,181.641 142.604 C 182.146 143.887,187.457 152.400,187.752 152.400 C 188.108 152.400,188.000 151.319,187.224 147.100 C 186.991 145.835,186.620 143.810,186.400 142.600 C 186.180 141.390,185.820 139.410,185.600 138.200 C 185.380 136.990,185.020 135.010,184.800 133.800 C 184.580 132.590,184.220 130.610,184.000 129.400 C 183.780 128.190,183.420 126.210,183.200 125.000 C 182.980 123.790,182.607 121.765,182.372 120.500 C 181.233 114.378,181.497 113.320,183.098 117.600 C 183.550 118.810,184.496 121.330,185.200 123.200 C 185.904 125.070,186.839 127.590,187.279 128.800 C 187.718 130.010,188.223 131.360,188.400 131.800 C 188.577 132.240,189.117 133.680,189.600 135.000 C 190.083 136.320,190.623 137.760,190.800 138.200 C 190.977 138.640,191.517 140.080,192.000 141.400 C 192.483 142.720,193.021 144.160,193.196 144.600 C 194.732 148.462,195.200 149.783,195.200 150.253 C 195.200 150.554,195.380 150.800,195.600 150.800 C 195.861 150.800,196.000 143.933,196.000 131.000 C 196.000 118.067,196.139 111.200,196.400 111.200 C 196.620 111.200,196.800 111.660,196.800 112.223 M156.800 197.200 C 156.800 197.420,157.250 197.600,157.800 197.600 C 158.350 197.600,158.800 197.420,158.800 197.200 C 158.800 196.980,158.350 196.800,157.800 196.800 C 157.250 196.800,156.800 196.980,156.800 197.200 " stroke="none" fill="#011e46" fill-rule="evenodd"></path><path id="path2" d="M134.000 192.602 C 126.294 194.066,120.041 197.777,115.015 203.871 C 112.871 206.469,109.600 212.460,109.600 213.787 C 109.600 215.593,108.902 216.000,105.811 216.000 C 96.428 216.000,89.251 220.661,87.027 228.200 L 86.555 229.800 83.378 229.600 C 77.032 229.201,62.651 229.407,60.400 229.930 C 55.298 231.115,54.487 231.329,52.200 232.095 C 41.886 235.550,32.239 243.581,29.543 250.957 C 25.949 260.790,38.443 267.381,54.601 264.176 L 55.802 263.938 55.801 268.269 C 55.798 281.194,67.681 289.537,79.400 284.838 C 80.720 284.308,81.971 283.723,82.180 283.538 C 82.910 282.889,83.504 283.217,85.844 285.561 C 94.568 294.304,109.731 293.254,120.948 283.130 C 123.829 280.530,124.065 280.449,125.317 281.640 C 128.577 284.739,133.986 287.433,140.600 289.250 C 150.265 291.906,163.476 288.032,172.000 280.041 C 174.944 277.281,174.768 277.356,176.046 278.317 C 176.571 278.712,178.170 279.641,179.600 280.381 C 181.030 281.122,182.956 282.242,183.881 282.870 C 187.388 285.253,189.040 285.735,193.800 285.769 C 198.256 285.800,199.152 285.611,202.716 283.888 L 204.431 283.058 206.516 285.073 C 212.326 290.691,220.903 292.991,228.024 290.842 C 233.866 289.079,238.163 286.726,242.207 283.076 C 245.204 280.372,245.040 280.368,248.600 283.204 C 251.750 285.713,255.982 287.652,261.800 289.250 C 264.424 289.972,273.520 289.967,276.200 289.243 C 283.578 287.251,288.452 284.609,293.284 279.982 C 295.731 277.639,296.516 277.217,296.994 277.990 C 297.345 278.558,302.126 281.173,303.676 281.646 C 311.332 283.979,317.445 283.778,323.525 280.994 C 330.264 277.909,335.952 271.210,337.956 264.000 C 339.143 259.728,338.391 260.231,344.008 259.954 C 360.987 259.117,372.174 250.467,369.986 239.867 C 367.173 226.241,351.422 221.467,335.029 229.271 C 332.069 230.681,331.538 230.680,330.703 229.267 C 324.937 219.505,307.934 217.727,296.338 225.672 C 294.494 226.936,294.105 226.662,293.825 223.900 C 293.573 221.426,293.157 219.300,292.315 216.200 C 291.356 212.667,287.908 206.468,285.333 203.646 C 268.012 184.669,238.278 190.300,230.662 214.000 L 230.084 215.800 225.942 216.054 C 217.168 216.591,210.927 220.378,208.667 226.536 C 208.427 227.192,208.184 227.094,206.450 225.642 C 201.055 221.125,191.773 219.166,185.187 221.154 C 181.665 222.218,178.959 223.370,176.459 224.873 C 173.135 226.871,172.800 226.846,172.800 224.606 C 172.800 221.043,170.910 214.649,168.434 209.833 C 162.212 197.730,147.021 190.128,134.000 192.602 " stroke="none" fill="#ffffff" fill-rule="evenodd"></path></g></svg>